REM DIRINDEX 1\2\5,1\2\6,1\2\7,1\2\8,1\3\9,1\3\10,1\3\11,1\4\12,1\4\13,1\4\14,1\4\15,1\4\16
REM DIRNAME folder01,folder02,folder03,folder04,folder05,folder06,folder07,folder08,folder09,folder10,folder11,folder12,folder13,folder14,folder15,folder16
TITLE ""
FILE "1200_sec03_1171_1180.mp3" MP3
  TRACK 01 AUDIO
    TITLE "0:"
    INDEX 01 00:00:00
  TRACK 02 AUDIO
    TITLE "12:cjc034_08377"
    INDEX 01 00:00:19
  TRACK 03 AUDIO
    TITLE "0:"
    INDEX 01 00:02:67
  TRACK 04 AUDIO
    TITLE "13:cjc034_08378"
    INDEX 01 00:03:23
  TRACK 05 AUDIO
    TITLE "0:"
    INDEX 01 00:06:22
  TRACK 06 AUDIO
    TITLE "14:cjc034_08379"
    INDEX 01 00:06:55
  TRACK 07 AUDIO
    TITLE "0:"
    INDEX 01 00:09:28
  TRACK 08 AUDIO
    TITLE "15:cjc034_08380"
    INDEX 01 00:09:61
  TRACK 09 AUDIO
    TITLE "0:"
    INDEX 01 00:13:10
  TRACK 10 AUDIO
    TITLE "12:cjc034_08381"
    INDEX 01 00:14:47
  TRACK 11 AUDIO
    TITLE "0:"
    INDEX 01 00:16:04
  TRACK 12 AUDIO
    TITLE "13:cjc034_08382"
    INDEX 01 00:16:38
  TRACK 13 AUDIO
    TITLE "0:"
    INDEX 01 00:21:13
  TRACK 14 AUDIO
    TITLE "14:cjc034_08383"
    INDEX 01 00:21:49
  TRACK 15 AUDIO
    TITLE "0:"
    INDEX 01 00:23:08
  TRACK 16 AUDIO
    TITLE "15:cjc034_08384"
    INDEX 01 00:23:42
  TRACK 17 AUDIO
    TITLE "0:"
    INDEX 01 00:27:28
  TRACK 18 AUDIO
    TITLE "12:cjc034_08385"
    INDEX 01 00:28:60
  TRACK 19 AUDIO
    TITLE "0:"
    INDEX 01 00:30:16
  TRACK 20 AUDIO
    TITLE "13:cjc034_08386"
    INDEX 01 00:30:52
  TRACK 21 AUDIO
    TITLE "0:"
    INDEX 01 00:33:28
  TRACK 22 AUDIO
    TITLE "14:cjc034_08387"
    INDEX 01 00:33:64
  TRACK 23 AUDIO
    TITLE "0:"
    INDEX 01 00:35:19
  TRACK 24 AUDIO
    TITLE "15:cjc034_08388"
    INDEX 01 00:35:55
  TRACK 25 AUDIO
    TITLE "0:"
    INDEX 01 00:39:03
  TRACK 26 AUDIO
    TITLE "12:cjc034_08389"
    INDEX 01 00:40:38
  TRACK 27 AUDIO
    TITLE "0:"
    INDEX 01 00:42:37
  TRACK 28 AUDIO
    TITLE "13:cjc034_08390"
    INDEX 01 00:42:70
  TRACK 29 AUDIO
    TITLE "0:"
    INDEX 01 00:46:53
  TRACK 30 AUDIO
    TITLE "14:cjc034_08391"
    INDEX 01 00:47:09
  TRACK 31 AUDIO
    TITLE "0:"
    INDEX 01 00:49:12
  TRACK 32 AUDIO
    TITLE "15:cjc034_08392"
    INDEX 01 00:49:41
  TRACK 33 AUDIO
    TITLE "0:"
    INDEX 01 00:53:25
  TRACK 34 AUDIO
    TITLE "12:cjc034_08393"
    INDEX 01 00:54:60
  TRACK 35 AUDIO
    TITLE "0:"
    INDEX 01 00:56:16
  TRACK 36 AUDIO
    TITLE "13:cjc034_08394"
    INDEX 01 00:56:47
  TRACK 37 AUDIO
    TITLE "0:"
    INDEX 01 00:59:04
  TRACK 38 AUDIO
    TITLE "14:cjc034_08395"
    INDEX 01 00:59:38
  TRACK 39 AUDIO
    TITLE "0:"
    INDEX 01 01:00:70
  TRACK 40 AUDIO
    TITLE "15:cjc034_08396"
    INDEX 01 01:01:27
  TRACK 41 AUDIO
    TITLE "0:"
    INDEX 01 01:05:32
  TRACK 42 AUDIO
    TITLE "12:cjc034_08397"
    INDEX 01 01:06:67
  TRACK 43 AUDIO
    TITLE "0:"
    INDEX 01 01:10:59
  TRACK 44 AUDIO
    TITLE "13:cjc034_08398"
    INDEX 01 01:11:17
  TRACK 45 AUDIO
    TITLE "0:"
    INDEX 01 01:12:70
  TRACK 46 AUDIO
    TITLE "14:cjc034_08399"
    INDEX 01 01:13:28
  TRACK 47 AUDIO
    TITLE "0:"
    INDEX 01 01:17:22
  TRACK 48 AUDIO
    TITLE "15:cjc034_08400"
    INDEX 01 01:17:53
  TRACK 49 AUDIO
    TITLE "0:"
    INDEX 01 01:22:01
  TRACK 50 AUDIO
    TITLE "12:cjc034_08401"
    INDEX 01 01:23:34
  TRACK 51 AUDIO
    TITLE "0:"
    INDEX 01 01:24:37
  TRACK 52 AUDIO
    TITLE "13:cjc034_08402"
    INDEX 01 01:24:71
  TRACK 53 AUDIO
    TITLE "0:"
    INDEX 01 01:28:06
  TRACK 54 AUDIO
    TITLE "14:cjc034_08403"
    INDEX 01 01:28:37
  TRACK 55 AUDIO
    TITLE "0:"
    INDEX 01 01:29:43
  TRACK 56 AUDIO
    TITLE "15:cjc034_08404"
    INDEX 01 01:29:74
  TRACK 57 AUDIO
    TITLE "0:"
    INDEX 01 01:33:52
  TRACK 58 AUDIO
    TITLE "12:cjc034_08405"
    INDEX 01 01:35:10
  TRACK 59 AUDIO
    TITLE "0:"
    INDEX 01 01:37:05
  TRACK 60 AUDIO
    TITLE "13:cjc034_08406"
    INDEX 01 01:37:38
  TRACK 61 AUDIO
    TITLE "0:"
    INDEX 01 01:39:49
  TRACK 62 AUDIO
    TITLE "14:cjc034_08407"
    INDEX 01 01:40:07
  TRACK 63 AUDIO
    TITLE "0:"
    INDEX 01 01:42:04
  TRACK 64 AUDIO
    TITLE "15:cjc034_08408"
    INDEX 01 01:42:35
  TRACK 65 AUDIO
    TITLE "0:"
    INDEX 01 01:46:31
  TRACK 66 AUDIO
    TITLE "12:cjc034_08409"
    INDEX 01 01:47:68
  TRACK 67 AUDIO
    TITLE "0:"
    INDEX 01 01:49:08
  TRACK 68 AUDIO
    TITLE "13:cjc034_08410"
    INDEX 01 01:49:39
  TRACK 69 AUDIO
    TITLE "0:"
    INDEX 01 01:50:70
  TRACK 70 AUDIO
    TITLE "14:cjc034_08411"
    INDEX 01 01:51:28
  TRACK 71 AUDIO
    TITLE "0:"
    INDEX 01 01:52:46
  TRACK 72 AUDIO
    TITLE "15:cjc034_08412"
    INDEX 01 01:53:02
  TRACK 73 AUDIO
    TITLE "0:"
    INDEX 01 01:57:04
  TRACK 74 AUDIO
    TITLE "12:cjc034_08413"
    INDEX 01 01:58:36
  TRACK 75 AUDIO
    TITLE "0:"
    INDEX 01 01:59:51
  TRACK 76 AUDIO
    TITLE "13:cjc034_08414"
    INDEX 01 02:00:10
  TRACK 77 AUDIO
    TITLE "0:"
    INDEX 01 02:04:12
  TRACK 78 AUDIO
    TITLE "14:cjc034_08415"
    INDEX 01 02:04:45
  TRACK 79 AUDIO
    TITLE "0:"
    INDEX 01 02:05:58
  TRACK 80 AUDIO
    TITLE "15:cjc034_08416"
    INDEX 01 02:06:20
  TRACK 81 AUDIO
    TITLE "0:"
    INDEX 01 02:09:28
